<svg width="232" height="282" viewBox="0 0 232 282" fill="none" xmlns="http://www.w3.org/2000/svg">
<path fill-rule="evenodd" clip-rule="evenodd" d="M49.0817 59.7751V122.246C49.0817 122.248 49.0807 122.249 49.0787 122.249H12.6197C12.6187 122.249 12.6177 122.248 12.6177 122.246V59.7751H49.0817Z" fill="#ACE9EB"/>
<path fill-rule="evenodd" clip-rule="evenodd" d="M38.4635 53.45V115.922L38.4615 115.924H2.00251C2.00151 115.923 2.00051 115.923 1.99951 115.922V53.45H38.4635Z" stroke="#07C0CA" stroke-width="4" stroke-linecap="round" stroke-linejoin="round"/>
<path fill-rule="evenodd" clip-rule="evenodd" d="M140.162 59.7751V122.246C140.162 122.248 140.161 122.249 140.159 122.249H103.7C103.699 122.249 103.698 122.248 103.698 122.246V59.7751H140.162Z" fill="#ACE9EB"/>
<mask id="mask0" mask-type="alpha" maskUnits="userSpaceOnUse" x="0" y="0" width="232" height="282">
<path fill-rule="evenodd" clip-rule="evenodd" d="M0 281.258H231.242V0H0V281.258Z" fill="white"/>
</mask>
<g mask="url(#mask0)">
<path fill-rule="evenodd" clip-rule="evenodd" d="M93.0801 115.924H129.545V53.45H93.0801V115.924Z" stroke="#07C0CA" stroke-width="4" stroke-linecap="round" stroke-linejoin="round"/>
<path fill-rule="evenodd" clip-rule="evenodd" d="M231.242 59.7751V122.246C231.242 122.248 231.241 122.249 231.239 122.249H194.78C194.779 122.249 194.778 122.248 194.778 122.246V59.7751H231.242Z" fill="#ACE9EB"/>
<path fill-rule="evenodd" clip-rule="evenodd" d="M184.16 115.924H220.625V53.45H184.16V115.924Z" stroke="#07C0CA" stroke-width="4" stroke-linecap="round" stroke-linejoin="round"/>
<path fill-rule="evenodd" clip-rule="evenodd" d="M170.798 281.258V260.757L179.802 207.076C179.802 200.948 174.835 195.981 168.707 195.981C166.981 195.981 165.346 196.375 163.889 197.079C162.701 192.231 158.329 188.633 153.114 188.633C151.545 188.633 150.053 188.961 148.7 189.548C147.792 184.334 143.247 180.369 137.774 180.369C134.817 180.369 132.131 181.528 130.143 183.415V154.926C130.143 149.18 125.783 144.521 120.406 144.521C115.029 144.521 110.671 149.18 110.671 154.926V212.134L105.055 205.282C98.6936 197.437 89.5426 195.064 81.6466 200.095C80.5056 200.821 80.1696 202.336 80.8966 203.477L117.757 261.17V281.258H170.798Z" fill="#ACE9EB"/>
<path d="M121.953 178.909V210.882" stroke="#07C0CA" stroke-width="4" stroke-linecap="round" stroke-linejoin="round"/>
<path d="M140.457 184.533V210.883" stroke="#07C0CA" stroke-width="4" stroke-linecap="round" stroke-linejoin="round"/>
<path d="M155.701 192.12V211.528" stroke="#07C0CA" stroke-width="4" stroke-linecap="round" stroke-linejoin="round"/>
<path fill-rule="evenodd" clip-rule="evenodd" d="M162.608 276.753V256.251L171.612 202.571C171.612 196.443 166.645 191.476 160.517 191.476C158.791 191.476 157.156 191.87 155.699 192.574C154.51 187.726 150.138 184.128 144.924 184.128C143.355 184.128 141.863 184.456 140.51 185.043C139.601 179.829 135.057 175.864 129.584 175.864C126.626 175.864 123.941 177.023 121.953 178.909V150.421C121.953 144.674 117.593 140.016 112.216 140.016C106.839 140.016 102.481 144.674 102.481 150.421V207.629L96.8652 200.777C90.5042 192.932 81.3532 190.559 73.4572 195.59C72.3162 196.316 71.9802 197.831 72.7072 198.972L109.567 256.665V276.753H162.608Z" stroke="#07C0CA" stroke-width="4" stroke-linecap="round" stroke-linejoin="round"/>
<path d="M121.953 178.909V210.882" stroke="#07C0CA" stroke-width="4" stroke-linecap="round" stroke-linejoin="round"/>
<path d="M140.457 184.533V210.883" stroke="#07C0CA" stroke-width="4" stroke-linecap="round" stroke-linejoin="round"/>
<path d="M155.701 192.12V211.528" stroke="#07C0CA" stroke-width="4" stroke-linecap="round" stroke-linejoin="round"/>
<path d="M111.312 2V22.899" stroke="#07C0CA" stroke-width="4" stroke-linecap="round" stroke-linejoin="round"/>
<path d="M146.393 14.3125L134.25 26.4555" stroke="#07C0CA" stroke-width="4" stroke-linecap="round" stroke-linejoin="round"/>
<path d="M76.2319 14.3125L88.3749 26.4555" stroke="#07C0CA" stroke-width="4" stroke-linecap="round" stroke-linejoin="round"/>
</g>
</svg>
