<svg width="352" height="214" viewBox="0 0 352 214" fill="none" xmlns="http://www.w3.org/2000/svg">
<rect x="206.289" y="67.7747" width="145.711" height="76.5352" rx="6" fill="#ACE9EB"/>
<rect x="201.15" y="62.6372" width="142.211" height="73.0352" rx="4.25" stroke="#07C0CA" stroke-width="3.5"/>
<mask id="path-3-inside-1" fill="white">
<rect x="209.705" y="69.7183" width="126.577" height="58.8732" rx="3"/>
</mask>
<rect x="209.705" y="69.7183" width="126.577" height="58.8732" rx="3" stroke="#07C0CA" stroke-width="7" mask="url(#path-3-inside-1)"/>
<path fill-rule="evenodd" clip-rule="evenodd" d="M273.413 85.9084C273.901 85.9084 274.296 86.304 274.296 86.7919V110.046C274.296 110.534 273.901 110.93 273.413 110.93C272.925 110.93 272.529 110.534 272.529 110.046V86.7919C272.529 86.304 272.925 85.9084 273.413 85.9084Z" fill="#07C0CA" stroke="#07C0CA" stroke-linecap="round" stroke-linejoin="round"/>
<path fill-rule="evenodd" clip-rule="evenodd" d="M267.105 94.7188C267.105 92.3225 268.793 90.1362 271.154 90.1362H277.936C278.424 90.1362 278.819 90.5318 278.819 91.0197C278.819 91.5076 278.424 91.9031 277.936 91.9031H271.154C270.017 91.9031 268.872 93.0293 268.872 94.7188C268.872 96.4087 270.018 97.5359 271.154 97.5359H275.675C278.035 97.5359 279.724 99.7216 279.724 102.118C279.724 104.515 278.035 106.701 275.675 106.701H267.989C267.501 106.701 267.105 106.305 267.105 105.818C267.105 105.33 267.501 104.934 267.989 104.934H275.675C276.811 104.934 277.957 103.807 277.957 102.118C277.957 100.429 276.811 99.3027 275.675 99.3027H271.154C268.792 99.3027 267.105 97.1146 267.105 94.7188Z" fill="#07C0CA" stroke="#07C0CA" stroke-linecap="round" stroke-linejoin="round"/>
<circle cx="272.992" cy="99.155" r="18.8556" stroke="#07C0CA" stroke-width="3.5"/>
<line x1="300.778" y1="100.018" x2="313.279" y2="100.222" stroke="#07C0CA" stroke-width="3.5" stroke-linecap="round"/>
<line x1="232.778" y1="100.018" x2="245.279" y2="100.222" stroke="#07C0CA" stroke-width="3.5" stroke-linecap="round"/>
<line x1="164.355" y1="92.9895" x2="188.82" y2="92.9895" stroke="#07C0CA" stroke-width="3.5" stroke-linecap="round"/>
<line x1="143.75" y1="107.708" x2="179.989" y2="107.708" stroke="#07C0CA" stroke-width="3.5" stroke-linecap="round"/>
<path d="M109.6 8H22.2C13.84 8 7 14.7401 7 22.9781V198.222C7 206.46 13.84 213.2 22.2 213.2H109.6C117.96 213.2 124.8 206.46 124.8 198.222V22.9781C124.8 14.7401 117.96 8 109.6 8Z" fill="#ACE9EB"/>
<path d="M46 84.7143L58.5921 95L79 74" stroke="#07C0CA" stroke-width="3.5" stroke-miterlimit="10" stroke-linecap="round" stroke-linejoin="round"/>
<path d="M48.48 143C49.3667 143 50.1367 143.149 50.79 143.448C51.4433 143.737 51.9473 144.157 52.302 144.708C52.6567 145.249 52.834 145.889 52.834 146.626C52.834 147.363 52.6567 148.003 52.302 148.544C51.9473 149.085 51.4433 149.505 50.79 149.804C50.1367 150.093 49.3667 150.238 48.48 150.238H46.772V152.8H44V143H48.48ZM48.312 148.054C48.8813 148.054 49.3107 147.933 49.6 147.69C49.8893 147.438 50.034 147.083 50.034 146.626C50.034 146.169 49.8893 145.814 49.6 145.562C49.3107 145.31 48.8813 145.184 48.312 145.184H46.772V148.054H48.312Z" fill="#07C0CA"/>
<path d="M60.2594 150.896H56.1154L55.3454 152.8H52.5174L56.8434 143H59.5734L63.9134 152.8H61.0294L60.2594 150.896ZM59.4474 148.852L58.1874 145.716L56.9274 148.852H59.4474Z" fill="#07C0CA"/>
<path d="M64.6992 143H67.4712V152.8H64.6992V143Z" fill="#07C0CA"/>
<path d="M69.4434 143H74.0774C75.1507 143 76.1027 143.201 76.9334 143.602C77.764 144.003 78.408 144.573 78.8654 145.31C79.3227 146.047 79.5514 146.911 79.5514 147.9C79.5514 148.889 79.3227 149.753 78.8654 150.49C78.408 151.227 77.764 151.797 76.9334 152.198C76.1027 152.599 75.1507 152.8 74.0774 152.8H69.4434V143ZM73.9654 150.588C74.8054 150.588 75.4774 150.35 75.9814 149.874C76.4947 149.398 76.7514 148.74 76.7514 147.9C76.7514 147.06 76.4947 146.402 75.9814 145.926C75.4774 145.45 74.8054 145.212 73.9654 145.212H72.2154V150.588H73.9654Z" fill="#07C0CA"/>
<path d="M15.1593 1.75H102.326C109.726 1.75 115.735 7.69792 115.735 14.8944V189.158C115.735 196.355 109.726 202.303 102.326 202.303H15.1593C7.75898 202.303 1.75 196.355 1.75 189.158V14.8944C1.75 7.69792 7.75898 1.75 15.1593 1.75Z" stroke="#07C0CA" stroke-width="3.5" stroke-linecap="round" stroke-linejoin="round"/>
<line x1="39.8281" y1="15.8132" x2="71.3675" y2="15.8132" stroke="#07C0CA" stroke-width="3.5" stroke-linecap="round" stroke-linejoin="round"/>
<circle cx="79.3806" cy="15.6802" r="2.24" fill="#07C0CA"/>
<circle cx="59.4973" cy="188.72" r="4.97" stroke="#07C0CA" stroke-width="3.5"/>
<mask id="path-18-inside-2" fill="white">
<rect x="13.4395" y="24.6399" width="94.08" height="152.32" rx="2"/>
</mask>
<rect x="13.4395" y="24.6399" width="94.08" height="152.32" rx="2" stroke="#07C0CA" stroke-width="7" mask="url(#path-18-inside-2)"/>
<mask id="path-19-inside-3" fill="white">
<rect x="24" y="42" width="72" height="84" rx="2"/>
</mask>
<rect x="24" y="42" width="72" height="84" rx="2" stroke="#07C0CA" stroke-width="7" stroke-linejoin="round" mask="url(#path-19-inside-3)"/>
<mask id="path-20-inside-4" fill="white">
<rect x="24" y="133" width="72" height="30" rx="2"/>
</mask>
<rect x="24" y="133" width="72" height="30" rx="2" stroke="#07C0CA" stroke-width="7" stroke-linejoin="round" mask="url(#path-20-inside-4)"/>
</svg>
